<svg xmlns="http://www.w3.org/2000/svg" aria-hidden="true" style="position:absolute;width:0;height:0;overflow:hidden">
  <defs>
    <symbol id="icon-minus" viewBox="0 0 31 32">
      <path d="M15.484 3.42C8.537 3.421 2.905 9.053 2.905 16s5.632 12.58 12.58 12.58 12.58-5.632 12.58-12.58c-.007-6.946-5.636-12.574-12.58-12.581h-.001zm4.839 13.547h-9.677a.97.97 0 0 1-.002-1.936h9.678a.968.968 0 0 1 0 1.936z"/>
    </symbol>

    <symbol id="icon-plus" viewBox="0 0 31 32">
      <path fill="#ad28eb" d="M15.484 3.42C8.537 3.421 2.905 9.053 2.905 16s5.632 12.58 12.58 12.58 12.58-5.632 12.58-12.58c-.009-6.945-5.636-12.572-12.58-12.581h-.001zm4.839 13.547h-3.871v3.871a.968.968 0 1 1-1.936 0v-3.871h-3.871a.97.97 0 0 1-.002-1.936H14.516V11.16a.968.968 0 0 1 1.936 0v3.871h3.871a.968.968 0 0 1 0 1.936z" style="fill:var(--color1, #ad28eb)"/>
    </symbol>

    <symbol id="icon-star" viewBox="0 0 31 32">
      <path fill="#ad28eb" d="M29.268 16v.015c0 .832-.528 1.541-1.267 1.81l-.013.004-7.737 2.813-2.812 7.735a1.952 1.952 0 0 1-3.654.014l-.004-.013-2.813-7.744-7.735-2.804a1.952 1.952 0 0 1-.014-3.654l.013-.004 7.743-2.813 2.805-7.735a1.952 1.952 0 0 1 3.654-.014l.004.013 2.813 7.743 7.735 2.805a1.93 1.93 0 0 1 1.281 1.814v.016V16z" style="fill:var(--color1, #ad28eb)"/>
    </symbol>
  </defs>
</svg>